<svg version="1.1"  xmlns="http://www.w3.org/2000/svg" xmlns:xlink="http://www.w3.org/1999/xlink" x="0px" y="0px" width="101.615px" height="34.056px" viewBox="0 0 101.615 34.056" enable-background="new 0 0 101.615 34.056" xml:space="preserve">


<!-- Icons for section Options on index page" -->


  <symbol id="icon-accessories" viewBox="-259.404 -19.675 40.219 62.411">
   <g fill="#35a999"><path d="M-244.227 18.283c-.286.966-.245 2.191.027 3.639.494 2.635 1.687 6.041 2.358 9.67h5.062c.696-3.641 1.949-7.05 2.471-9.683.287-1.445.33-2.66.041-3.617-.275-.899-.89-1.618-2.021-2.303h-5.997c-1.075.679-1.674 1.391-1.941 2.294zM-232.395 38.278h-13.799c-1.293 0-2.299.976-2.299 2.229v2.229h18.397v-2.229c0-1.253-1.006-2.229-2.299-2.229zM-225.262-17.446h-11.732c0-1.244-1.015-2.229-2.3-2.229-1.283 0-2.3.985-2.3 2.229h-11.737l-6.073 25.517c.794-.461 1.589-.992 2.632-.992 1.359 0 2.243.818 2.924 1.375.682.557 1.162.849 1.447.849.292.001.769-.287 1.451-.836.681-.548 1.564-1.358 2.915-1.358 1.349 0 2.237.806 2.919 1.354.684.549 1.161.84 1.451.84.146 0 .338-.073.58-.214.242-.141.53-.353.872-.626.512-.411 1.139-.967 1.99-1.218.284-.085.593-.136.93-.136 1.347 0 2.238.805 2.92 1.354.683.548 1.159.84 1.451.84.287-.002.766-.296 1.445-.85.684-.554 1.571-1.367 2.925-1.367 1.356 0 2.239.817 2.919 1.371.342.276.631.489.872.631.24.143.431.214.575.214.288 0 .762-.293 1.442-.854.68-.559 1.567-1.384 2.929-1.384 1.044 0 1.839.533 2.632.997l-6.079-25.507zM-235.881 33.82h-6.864c-.657 0-1.15.479-1.15 1.115 0 .635.493 1.113 1.15 1.113h6.9c.655 0 1.15-.479 1.15-1.113 0-.636-.495-1.115-1.15-1.115h-.036zM-239.295 9.336c-.146 0-.338.074-.58.213-.157.094-.37.261-.57.41v3.731h2.299V9.959c-.505-.378-.908-.623-1.149-.623z"/></g>
  </symbol>
  <symbol id="icon-toy"  viewBox="226.001 226.19 60 59.62">
    <path fill="#35a999" d="M226.001 269.871l27.438 15.934v-23.346l-27.438-15.94v23.352zm51.346-31.244v2.453c0 1.817-3.458 3.29-7.73 3.29-4.266 0-7.727-1.473-7.727-3.29v-4.059h.024c.26 1.714 3.604 3.073 7.702 3.073 4.272 0 7.729-1.474 7.729-3.285 0-1.819-3.457-3.289-7.729-3.289-.339 0-.675.01-1.002.03l-4.975-2.888v3.086c0 1.817-3.454 3.29-7.723 3.29-2.683 0-5.045-.583-6.433-1.467a3.928 3.928 0 0 0-.732-.586c-.363-.381-.565-.797-.565-1.236v-2.986l-4.807 2.792a21.384 21.384 0 0 0-1.054-.033c-4.267 0-7.727 1.469-7.727 3.289 0 1.811 3.46 3.285 7.727 3.285 4.099 0 7.446-1.358 7.705-3.073h.022v4.059c0 1.817-3.455 3.29-7.727 3.29-4.267 0-7.727-1.473-7.727-3.29v-2.42l-5.952 3.452 27.531 15.986 27.351-15.882-6.181-3.591zm-13.644 10.166c0 1.817-3.46 3.287-7.727 3.287-4.269 0-7.729-1.47-7.729-3.287v-4.059h.024c.26 1.715 3.603 3.076 7.705 3.076 4.101 0 7.443-1.361 7.705-3.076h.021v4.059h.001zm-5.145 13.873v23.144L286 269.871v-23.144l-27.442 15.939zm-2.641-29.904c4.269 0 7.723-1.47 7.723-3.286 0-1.814-3.454-3.287-7.723-3.287-4.27 0-7.729 1.472-7.729 3.287-.001 1.816 3.459 3.286 7.729 3.286"/>
  </symbol>


<!-- Icons for section About Us on index page -->


  <symbol id="icon-ball" >
    <path d="M.286 14.069a17.244 17.244 0 0 0 .008 6.301l4.121-3.21-4.129-3.091zM24.403 1.585C19.62-.623 13.959-.559 9.149 1.992l7.513 5.625 7.741-6.032zM33.901 13.175l-4.811 3.748 4.936 3.695a17.248 17.248 0 0 0-.125-7.443zM9.209 32.414c4.844 2.534 10.724 2.65 15.73.113l-8.096-6.062-7.634 5.949zM7.914 14.433L1.681 9.767c-.32.669-.595 1.356-.825 2.056l5.308 3.974 1.75-1.364zM18.593 25.102l8.336 6.242a17.184 17.184 0 0 0 1.74-1.372l-8.326-6.234-1.75 1.364zM11.413 11.707L4.002 6.158a17.073 17.073 0 0 0-1.269 1.723l6.931 5.189 1.749-1.363zM22.093 22.375l8.092 6.059c.471-.544.904-1.112 1.297-1.701l-7.639-5.721-1.75 1.363zM14.913 8.98L7.196 3.203a17.436 17.436 0 0 0-1.709 1.394l7.676 5.747 1.75-1.364zM25.592 19.649l6.972 5.221c.33-.662.615-1.341.855-2.033l-6.077-4.55-1.75 1.362zM26.448 2.706L.88 22.626c.233.698.513 1.386.839 2.059l26.52-20.663a17.006 17.006 0 0 0-1.791-1.316zM30.743 6.624a17.418 17.418 0 0 0-.939-1.106L2.786 26.567a17.144 17.144 0 0 0 1.279 1.717l27.09-21.108c-.134-.186-.269-.37-.412-.552zM32.298 8.999L5.552 29.838c.544.501 1.114.962 1.708 1.382l25.962-20.228a17.158 17.158 0 0 0-.924-1.993z"/>
  </symbol>
  <symbol id="icon-flower" viewBox="8.014 4.35 31.972 37.301">
    <path fill="#231F20" d="M24 41.65c8.827 0 15.986-7.159 15.986-15.986C31.158 25.664 24 32.822 24 41.65zM12.641 20.78a4.442 4.442 0 0 0 4.44 4.441c.932 0 1.803-.294 2.513-.782l-.036.337c0 2.451 1.99 4.441 4.441 4.441s4.44-1.99 4.44-4.441l-.036-.337a4.396 4.396 0 0 0 2.514.782c2.451 0 4.44-1.99 4.44-4.441a4.418 4.418 0 0 0-2.54-3.997 4.434 4.434 0 0 0 2.54-3.997 4.441 4.441 0 0 0-6.954-3.659l.037-.337a4.441 4.441 0 0 0-8.881 0l.036.337a4.392 4.392 0 0 0-2.513-.781 4.442 4.442 0 0 0-4.44 4.44 4.42 4.42 0 0 0 2.54 3.997 4.42 4.42 0 0 0-2.541 3.997zM24 12.343a4.441 4.441 0 0 1 4.44 4.44 4.441 4.441 0 0 1-8.881 0c0-2.451 1.99-4.44 4.441-4.44zM8.014 25.664c0 8.827 7.158 15.986 15.986 15.986 0-8.828-7.158-15.986-15.986-15.986z"/>
  </symbol>
  <symbol id="icon-gift" viewBox="239.665 239.757 32.666 32.486">
    <path fill="#231F20" d="M242.56 272.243h12.504v-13.91H242.56v13.91zm28.182-23.62h-7.335c.521-.267.984-.549 1.396-.845 1.588-1.133 2.424-2.57 2.42-3.999.002-1.169-.556-2.202-1.359-2.901a4.585 4.585 0 0 0-3.016-1.121c-1.22-.001-2.352.421-3.32 1.069-1.459.979-2.606 2.451-3.424 4.067-.039.079-.078.157-.115.236a12.944 12.944 0 0 0-1.041-1.792c-.691-.985-1.523-1.86-2.497-2.511-.97-.646-2.103-1.069-3.322-1.069-1.213.004-2.323.514-3.155 1.295-.828.783-1.41 1.885-1.412 3.135-.002.73.211 1.494.649 2.188.552.872 1.424 1.628 2.633 2.248h-6.588c-.878 0-1.591.712-1.591 1.59v5.897h15.396v-7.488h1.873v7.488h15.396v-5.897a1.585 1.585 0 0 0-1.588-1.59m-22.362-2.339c-.622-.391-1-.785-1.22-1.135-.22-.354-.294-.662-.296-.963-.004-.504.248-1.042.691-1.461.437-.415 1.028-.667 1.562-.667h.013c.685 0 1.366.231 2.046.683 1.018.671 1.975 1.85 2.645 3.187.342.676.609 1.39.789 2.087-3.082-.321-5.078-1.002-6.23-1.731m10.537-1.627c.557-.797 1.21-1.466 1.887-1.916.68-.451 1.362-.683 2.047-.683h.006c.574 0 1.117.22 1.494.55.377.336.571.739.573 1.171-.004.512-.272 1.259-1.467 2.132-1.138.825-3.101 1.673-6.127 2.265a10.57 10.57 0 0 1 1.587-3.519m-1.98 27.586h12.506v-13.91h-12.506v13.91z"/>
  </symbol>
  <symbol id="icon-heart" viewBox="47.475 50.071 33.05 27.857">
    <path fill="#231F20" d="M80.525 58.808a8.736 8.736 0 0 0-8.736-8.736A8.727 8.727 0 0 0 64 54.865a8.727 8.727 0 0 0-7.789-4.793 8.736 8.736 0 0 0-8.736 8.736c0 9.127 14.657 19.121 16.525 19.121 1.869 0 16.525-9.95 16.525-19.121z"/>
  </symbol>
  <symbol id="icon-money" viewBox="46.212 56.834 46.575 27.332">
    <path d="M88.882 56.834H50.116a3.905 3.905 0 0 0-3.904 3.905V80.26a3.905 3.905 0 0 0 3.904 3.905h38.766a3.906 3.906 0 0 0 3.905-3.905V60.739a3.906 3.906 0 0 0-3.905-3.905zm-39.647 24.95V59.551h40.202v22.233H49.235z"/>
    <path d="M53.14 77.88h32.395V63.456H53.14V77.88zM69.5 65.354a5.315 5.315 0 1 1 0 10.63 5.315 5.315 0 0 1 0-10.63z"/>
  </symbol>
  <symbol id="icon-rocket" viewBox="612.532 500.386 54.156 23.183">
    <path fill="black" d="M652.844 506.098c-3.647-.971-7.839-1.667-12.359-1.666a46.394 46.394 0 0 0-7.71.623l-6.784-4.668-13.456.005 5.811 6.184h8.447c-4.58 1.598-6.759 3.515-6.759 3.515l.002 3.777s2.313 1.912 6.931 3.518l-8.623-.005-5.811 6.188 13.455.002 6.816-4.692c2.261.398 4.822.647 7.681.648 4.522-.001 8.712-.697 12.36-1.667-1.176-1.775-1.915-3.743-1.918-5.877.003-2.141.738-4.112 1.917-5.885zM656.267 507.132c-1.284 1.605-1.969 3.25-1.965 4.84-.007 1.597.677 3.238 1.968 4.847 6.399-2.162 10.419-4.841 10.419-4.841s-4.019-2.68-10.422-4.846z"/>
  </symbol>


<!-- Icon for arrows in Review section on inde page -->


  <symbol id="icon-left-arrow"  viewBox="0 0 50 26.003">
    <path d="M50 11.002H7.659l8.174-8.174L13.005 0 0 12.998l.003.003-.003.004 13.005 12.998 2.828-2.828-8.172-8.173H50z"/>
  </symbol>
  <symbol id="icon-right-arrow"  viewBox="0 0 50 26.003">
    <path d="M0 11.002h42.341l-8.175-8.174L36.995 0 50 12.998l-.004.003.004.004-13.005 12.998-2.829-2.828 8.173-8.173H0z"/>
  </symbol>
</svg>
